<?xml version="1.0" encoding="UTF-8"?>
<svg xmlns="http://www.w3.org/2000/svg" xmlns:xlink="http://www.w3.org/1999/xlink" width="px" height="15px" viewBox="0 0 15 15" version="1.1">
<g id="surface1">
<path style=" stroke:none;fill-rule:nonzero;fill:rgb(60.392157%,28.627451%,57.647059%);fill-opacity:1;" d="M 14.101562 4.433594 C 14.101562 4.1875 14.050781 3.960938 13.941406 3.777344 C 13.835938 3.589844 13.675781 3.433594 13.464844 3.3125 C 11.707031 2.296875 9.945312 1.285156 8.1875 0.273438 C 7.710938 0 7.257812 0.0078125 6.785156 0.285156 C 6.085938 0.695312 2.578125 2.707031 1.535156 3.3125 C 1.105469 3.558594 0.898438 3.941406 0.898438 4.4375 L 0.898438 10.558594 C 0.898438 10.800781 0.949219 11.015625 1.050781 11.203125 C 1.15625 11.394531 1.320312 11.558594 1.535156 11.683594 C 2.582031 12.289062 6.085938 14.296875 6.785156 14.710938 C 7.257812 14.988281 7.714844 15 8.1875 14.722656 C 9.945312 13.707031 11.707031 12.699219 13.464844 11.683594 C 13.683594 11.558594 13.84375 11.398438 13.949219 11.203125 C 14.050781 11.015625 14.101562 10.800781 14.101562 10.558594 Z M 14.101562 4.433594 "/>
<path style=" stroke:none;fill-rule:nonzero;fill:rgb(41.568627%,8.235294%,46.666667%);fill-opacity:1;" d="M 7.515625 7.472656 L 1.042969 11.199219 C 1.148438 11.390625 1.3125 11.554688 1.527344 11.679688 C 2.574219 12.285156 6.074219 14.292969 6.777344 14.707031 C 7.246094 14.984375 7.707031 14.996094 8.179688 14.71875 C 9.9375 13.703125 11.699219 12.691406 13.457031 11.679688 C 13.675781 11.554688 13.835938 11.394531 13.941406 11.199219 Z M 7.515625 7.472656 "/>
<path style=" stroke:none;fill-rule:nonzero;fill:rgb(41.568627%,8.235294%,46.666667%);fill-opacity:1;" d="M 5.601562 8.574219 C 5.976562 9.234375 6.6875 9.679688 7.496094 9.679688 C 8.3125 9.679688 9.027344 9.230469 9.398438 8.5625 L 7.515625 7.472656 Z M 5.601562 8.574219 "/>
<path style=" stroke:none;fill-rule:nonzero;fill:rgb(50.588235%,18.823529%,51.764706%);fill-opacity:1;" d="M 14.101562 4.433594 C 14.101562 4.1875 14.050781 3.960938 13.941406 3.777344 L 7.515625 7.472656 L 13.949219 11.199219 C 14.050781 11.011719 14.101562 10.796875 14.101562 10.554688 Z M 14.101562 4.433594 "/>
<path style=" stroke:none;fill-rule:nonzero;fill:rgb(100%,100%,100%);fill-opacity:1;" d="M 9.398438 8.5625 C 9.027344 9.226562 8.3125 9.679688 7.496094 9.679688 C 6.683594 9.679688 5.972656 9.234375 5.601562 8.574219 C 5.417969 8.253906 5.3125 7.886719 5.3125 7.492188 C 5.3125 6.285156 6.289062 5.308594 7.496094 5.308594 C 8.300781 5.308594 9.003906 5.75 9.382812 6.398438 L 11.292969 5.300781 C 10.53125 3.992188 9.113281 3.109375 7.492188 3.109375 C 5.066406 3.109375 3.105469 5.074219 3.105469 7.492188 C 3.105469 8.289062 3.316406 9.035156 3.6875 9.679688 C 4.445312 10.992188 5.867188 11.878906 7.496094 11.878906 C 9.128906 11.878906 10.550781 10.988281 11.308594 9.667969 Z M 11.8125 6.457031 L 11.378906 6.457031 L 11.378906 8.558594 L 11.8125 8.558594 Z M 12.777344 6.457031 L 12.339844 6.457031 L 12.339844 8.558594 L 12.777344 8.558594 Z M 12.777344 6.457031 "/>
<path style=" stroke:none;fill-rule:nonzero;fill:rgb(100%,100%,100%);fill-opacity:1;" d="M 13.128906 6.808594 L 11.027344 6.808594 L 11.027344 7.246094 L 13.128906 7.246094 Z M 13.128906 7.769531 L 11.027344 7.769531 L 11.027344 8.207031 L 13.128906 8.207031 Z M 13.128906 7.769531 "/>
</g>
</svg>
