<?xml version="1.0" encoding="UTF-8"?>
<svg xmlns="http://www.w3.org/2000/svg" xmlns:xlink="http://www.w3.org/1999/xlink" width="px" height="15px" viewBox="0 0 15 15" version="1.1">
<g id="surface1">
<rect x="0" y="0" width="15" height="15" style="fill:rgb(96.862745%,87.45098%,11.764706%);fill-opacity:1;stroke:none;"/>
<path style=" stroke:none;fill-rule:nonzero;fill:rgb(0%,0%,0%);fill-opacity:1;" d="M 10.078125 11.71875 C 10.378906 12.210938 10.769531 12.574219 11.464844 12.574219 C 12.050781 12.574219 12.421875 12.28125 12.421875 11.878906 C 12.421875 11.394531 12.039062 11.226562 11.398438 10.945312 L 11.046875 10.792969 C 10.027344 10.359375 9.351562 9.816406 9.351562 8.667969 C 9.351562 7.613281 10.15625 6.808594 11.417969 6.808594 C 12.3125 6.808594 12.957031 7.117188 13.421875 7.933594 L 12.324219 8.640625 C 12.082031 8.207031 11.820312 8.035156 11.417969 8.035156 C 11.003906 8.035156 10.742188 8.296875 10.742188 8.640625 C 10.742188 9.0625 11.003906 9.234375 11.609375 9.496094 L 11.960938 9.648438 C 13.160156 10.160156 13.835938 10.683594 13.835938 11.863281 C 13.835938 13.128906 12.839844 13.824219 11.5 13.824219 C 10.191406 13.824219 9.34375 13.203125 8.929688 12.382812 Z M 5.097656 11.839844 C 5.316406 12.234375 5.519531 12.566406 6.003906 12.566406 C 6.46875 12.566406 6.757812 12.382812 6.757812 11.679688 L 6.757812 6.886719 L 8.167969 6.886719 L 8.167969 11.699219 C 8.167969 13.160156 7.3125 13.824219 6.0625 13.824219 C 4.933594 13.824219 4.28125 13.238281 3.949219 12.535156 Z M 5.097656 11.839844 "/>
</g>
</svg>
