<?xml version="1.0" encoding="UTF-8"?>
<svg xmlns="http://www.w3.org/2000/svg" xmlns:xlink="http://www.w3.org/1999/xlink" width="px" height="15px" viewBox="0 0 27 15" version="1.1">
<defs>
<clipPath id="clip1">
  <path d="M 0.378906 7.492188 C 0.378906 11.414062 6.253906 14.59375 13.503906 14.59375 C 20.75 14.59375 26.628906 11.414062 26.628906 7.492188 C 26.628906 3.570312 20.75 0.390625 13.503906 0.390625 C 6.253906 0.390625 0.378906 3.570312 0.378906 7.492188 "/>
</clipPath>
<radialGradient id="radial0" gradientUnits="userSpaceOnUse" cx="0" cy="0" fx="0" fy="0" r="1" gradientTransform="matrix(17.233761,0,0,17.727436,8.259495,2.887298)">
<stop offset="0" style="stop-color:rgb(68.235294%,69.803922%,83.529412%);stop-opacity:1;"/>
<stop offset="0.3" style="stop-color:rgb(68.235294%,69.803922%,83.529412%);stop-opacity:1;"/>
<stop offset="0.75" style="stop-color:rgb(28.235294%,29.803922%,53.72549%);stop-opacity:1;"/>
<stop offset="1" style="stop-color:rgb(28.235294%,29.803922%,53.72549%);stop-opacity:1;"/>
</radialGradient>
</defs>
<g id="surface1">
<g clip-path="url(#clip1)" clip-rule="nonzero">
<path style=" stroke:none;fill-rule:nonzero;fill:url(#radial0);" d="M 0.378906 7.492188 C 0.378906 11.414062 6.253906 14.59375 13.503906 14.59375 C 20.75 14.59375 26.628906 11.414062 26.628906 7.492188 C 26.628906 3.570312 20.75 0.390625 13.503906 0.390625 C 6.253906 0.390625 0.378906 3.570312 0.378906 7.492188 "/>
</g>
<path style=" stroke:none;fill-rule:nonzero;fill:rgb(46.666667%,48.235294%,70.196078%);fill-opacity:1;" d="M 13.503906 14.066406 C 20.46875 14.066406 26.113281 11.121094 26.113281 7.492188 C 26.113281 3.859375 20.46875 0.917969 13.503906 0.917969 C 6.539062 0.917969 0.890625 3.859375 0.890625 7.492188 C 0.890625 11.121094 6.539062 14.066406 13.503906 14.066406 "/>
<path style=" stroke:none;fill-rule:nonzero;fill:rgb(0%,0%,0%);fill-opacity:1;" d="M 7.511719 8.308594 C 8.082031 8.308594 8.511719 8.199219 8.78125 7.984375 C 9.046875 7.773438 9.234375 7.40625 9.332031 6.894531 C 9.421875 6.414062 9.386719 6.078125 9.226562 5.898438 C 9.066406 5.714844 8.714844 5.621094 8.1875 5.621094 L 7.273438 5.621094 L 6.765625 8.308594 Z M 4.515625 11.617188 C 4.472656 11.617188 4.433594 11.597656 4.40625 11.5625 C 4.378906 11.527344 4.367188 11.484375 4.375 11.441406 L 5.722656 4.324219 C 5.734375 4.253906 5.792969 4.207031 5.863281 4.207031 L 8.757812 4.207031 C 9.671875 4.207031 10.347656 4.460938 10.773438 4.960938 C 11.203125 5.464844 11.335938 6.171875 11.167969 7.058594 C 11.097656 7.417969 10.980469 7.753906 10.820312 8.054688 C 10.65625 8.355469 10.441406 8.632812 10.179688 8.878906 C 9.863281 9.183594 9.507812 9.402344 9.121094 9.53125 C 8.742188 9.660156 8.253906 9.722656 7.671875 9.722656 L 6.5 9.722656 L 6.164062 11.496094 C 6.152344 11.566406 6.09375 11.617188 6.023438 11.617188 Z M 4.515625 11.617188 "/>
<path style=" stroke:none;fill-rule:nonzero;fill:rgb(100%,100%,100%);fill-opacity:1;" d="M 7.390625 5.769531 L 8.1875 5.769531 C 8.824219 5.769531 9.046875 5.910156 9.121094 5.996094 C 9.246094 6.140625 9.269531 6.441406 9.191406 6.863281 C 9.101562 7.339844 8.933594 7.679688 8.695312 7.867188 C 8.449219 8.0625 8.050781 8.160156 7.511719 8.160156 L 6.9375 8.160156 Z M 8.757812 4.058594 L 5.863281 4.058594 C 5.726562 4.058594 5.609375 4.160156 5.582031 4.296875 L 4.238281 11.414062 C 4.222656 11.5 4.242188 11.585938 4.296875 11.65625 C 4.351562 11.722656 4.429688 11.761719 4.515625 11.761719 L 6.023438 11.761719 C 6.160156 11.761719 6.277344 11.664062 6.304688 11.523438 L 6.617188 9.871094 L 7.671875 9.871094 C 8.269531 9.871094 8.773438 9.800781 9.167969 9.671875 C 9.570312 9.535156 9.945312 9.304688 10.273438 8.988281 C 10.546875 8.730469 10.773438 8.4375 10.945312 8.125 C 11.113281 7.8125 11.238281 7.460938 11.308594 7.085938 C 11.484375 6.152344 11.339844 5.40625 10.882812 4.867188 C 10.425781 4.332031 9.714844 4.058594 8.757812 4.058594 M 6.59375 8.453125 L 7.511719 8.453125 C 8.117188 8.453125 8.570312 8.335938 8.867188 8.101562 C 9.164062 7.863281 9.367188 7.472656 9.46875 6.921875 C 9.570312 6.390625 9.523438 6.019531 9.332031 5.800781 C 9.144531 5.582031 8.761719 5.476562 8.1875 5.476562 L 7.15625 5.476562 L 6.59375 8.453125 M 8.757812 4.351562 C 9.632812 4.351562 10.265625 4.585938 10.667969 5.058594 C 11.066406 5.527344 11.1875 6.1875 11.027344 7.03125 C 10.960938 7.378906 10.851562 7.695312 10.695312 7.984375 C 10.539062 8.269531 10.332031 8.535156 10.082031 8.773438 C 9.78125 9.0625 9.445312 9.269531 9.078125 9.390625 C 8.710938 9.515625 8.242188 9.578125 7.671875 9.578125 L 6.382812 9.578125 L 6.023438 11.46875 L 4.515625 11.46875 L 5.863281 4.351562 L 8.757812 4.351562 "/>
<path style=" stroke:none;fill-rule:nonzero;fill:rgb(0%,0%,0%);fill-opacity:1;" d="M 14.625 9.722656 C 14.582031 9.722656 14.539062 9.703125 14.511719 9.671875 C 14.484375 9.636719 14.476562 9.59375 14.484375 9.550781 L 15.078125 6.398438 C 15.136719 6.101562 15.121094 5.886719 15.039062 5.792969 C 14.988281 5.738281 14.839844 5.644531 14.394531 5.644531 L 13.316406 5.644531 L 12.566406 9.605469 C 12.554688 9.671875 12.496094 9.722656 12.429688 9.722656 L 10.933594 9.722656 C 10.890625 9.722656 10.851562 9.703125 10.824219 9.671875 C 10.796875 9.636719 10.785156 9.589844 10.792969 9.550781 L 12.136719 2.433594 C 12.152344 2.363281 12.210938 2.3125 12.277344 2.3125 L 13.773438 2.3125 C 13.816406 2.3125 13.855469 2.332031 13.882812 2.367188 C 13.910156 2.402344 13.921875 2.445312 13.914062 2.488281 L 13.585938 4.207031 L 14.746094 4.207031 C 15.628906 4.207031 16.230469 4.367188 16.578125 4.695312 C 16.933594 5.03125 17.042969 5.570312 16.90625 6.292969 L 16.28125 9.605469 C 16.269531 9.671875 16.210938 9.722656 16.140625 9.722656 Z M 14.625 9.722656 "/>
<path style=" stroke:none;fill-rule:nonzero;fill:rgb(100%,100%,100%);fill-opacity:1;" d="M 13.773438 2.167969 L 12.277344 2.167969 C 12.140625 2.167969 12.023438 2.265625 11.996094 2.402344 L 10.652344 9.519531 C 10.636719 9.605469 10.660156 9.695312 10.710938 9.761719 C 10.765625 9.832031 10.847656 9.871094 10.933594 9.871094 L 12.429688 9.871094 C 12.5625 9.871094 12.679688 9.769531 12.707031 9.632812 L 13.433594 5.792969 L 14.394531 5.792969 C 14.835938 5.792969 14.929688 5.890625 14.933594 5.894531 C 14.960938 5.925781 14.996094 6.0625 14.9375 6.371094 L 14.34375 9.519531 C 14.328125 9.605469 14.347656 9.695312 14.402344 9.761719 C 14.457031 9.832031 14.539062 9.871094 14.625 9.871094 L 16.140625 9.871094 C 16.277344 9.871094 16.394531 9.769531 16.421875 9.632812 L 17.046875 6.320312 C 17.195312 5.542969 17.070312 4.960938 16.675781 4.585938 C 16.296875 4.230469 15.667969 4.058594 14.746094 4.058594 L 13.761719 4.058594 L 14.050781 2.515625 C 14.066406 2.429688 14.046875 2.339844 13.992188 2.273438 C 13.9375 2.207031 13.859375 2.167969 13.773438 2.167969 M 13.773438 2.460938 L 13.414062 4.351562 L 14.746094 4.351562 C 15.585938 4.351562 16.164062 4.503906 16.480469 4.804688 C 16.800781 5.105469 16.894531 5.589844 16.769531 6.265625 L 16.140625 9.578125 L 14.625 9.578125 L 15.21875 6.429688 C 15.285156 6.070312 15.261719 5.824219 15.144531 5.695312 C 15.027344 5.566406 14.777344 5.5 14.394531 5.5 L 13.199219 5.5 L 12.429688 9.578125 L 10.933594 9.578125 L 12.277344 2.460938 L 13.773438 2.460938 "/>
<path style=" stroke:none;fill-rule:nonzero;fill:rgb(0%,0%,0%);fill-opacity:1;" d="M 19.273438 8.308594 C 19.847656 8.308594 20.273438 8.199219 20.542969 7.984375 C 20.8125 7.773438 20.996094 7.40625 21.09375 6.894531 C 21.183594 6.414062 21.148438 6.078125 20.992188 5.898438 C 20.828125 5.714844 20.480469 5.621094 19.953125 5.621094 L 19.035156 5.621094 L 18.53125 8.308594 Z M 16.28125 11.617188 C 16.238281 11.617188 16.199219 11.597656 16.171875 11.5625 C 16.144531 11.527344 16.132812 11.484375 16.140625 11.441406 L 17.484375 4.324219 C 17.5 4.253906 17.554688 4.207031 17.625 4.207031 L 20.523438 4.207031 C 21.433594 4.207031 22.113281 4.460938 22.539062 4.960938 C 22.964844 5.464844 23.097656 6.171875 22.929688 7.058594 C 22.863281 7.417969 22.746094 7.753906 22.582031 8.054688 C 22.417969 8.355469 22.203125 8.632812 21.941406 8.878906 C 21.628906 9.183594 21.273438 9.402344 20.886719 9.53125 C 20.503906 9.660156 20.019531 9.722656 19.4375 9.722656 L 18.261719 9.722656 L 17.925781 11.496094 C 17.914062 11.566406 17.855469 11.617188 17.789062 11.617188 Z M 16.28125 11.617188 "/>
<path style=" stroke:none;fill-rule:nonzero;fill:rgb(100%,100%,100%);fill-opacity:1;" d="M 19.15625 5.769531 L 19.953125 5.769531 C 20.589844 5.769531 20.8125 5.910156 20.886719 5.996094 C 21.011719 6.140625 21.035156 6.441406 20.953125 6.863281 C 20.863281 7.339844 20.695312 7.679688 20.457031 7.867188 C 20.210938 8.0625 19.8125 8.160156 19.273438 8.160156 L 18.703125 8.160156 Z M 20.523438 4.058594 L 17.625 4.058594 C 17.488281 4.058594 17.371094 4.160156 17.34375 4.296875 L 16 11.414062 C 15.984375 11.5 16.007812 11.585938 16.058594 11.65625 C 16.113281 11.722656 16.195312 11.761719 16.28125 11.761719 L 17.789062 11.761719 C 17.921875 11.761719 18.039062 11.664062 18.066406 11.523438 L 18.378906 9.871094 L 19.4375 9.871094 C 20.03125 9.871094 20.535156 9.800781 20.929688 9.671875 C 21.335938 9.535156 21.707031 9.304688 22.039062 8.988281 C 22.3125 8.730469 22.535156 8.4375 22.707031 8.125 C 22.878906 7.8125 23 7.460938 23.070312 7.085938 C 23.246094 6.152344 23.105469 5.40625 22.644531 4.867188 C 22.191406 4.332031 21.476562 4.058594 20.523438 4.058594 M 18.355469 8.453125 L 19.273438 8.453125 C 19.882812 8.453125 20.332031 8.335938 20.632812 8.101562 C 20.929688 7.863281 21.128906 7.472656 21.234375 6.921875 C 21.332031 6.390625 21.289062 6.019531 21.097656 5.800781 C 20.90625 5.582031 20.523438 5.476562 19.953125 5.476562 L 18.917969 5.476562 L 18.355469 8.453125 M 20.523438 4.351562 C 21.394531 4.351562 22.03125 4.585938 22.429688 5.058594 C 22.832031 5.527344 22.949219 6.1875 22.792969 7.03125 C 22.726562 7.378906 22.613281 7.695312 22.457031 7.984375 C 22.300781 8.269531 22.097656 8.535156 21.84375 8.773438 C 21.542969 9.0625 21.210938 9.269531 20.839844 9.390625 C 20.472656 9.515625 20.003906 9.578125 19.4375 9.578125 L 18.144531 9.578125 L 17.789062 11.46875 L 16.28125 11.46875 L 17.625 4.351562 L 20.523438 4.351562 "/>
</g>
</svg>
