<?xml version="1.0" encoding="UTF-8"?>
<svg xmlns="http://www.w3.org/2000/svg" xmlns:xlink="http://www.w3.org/1999/xlink" width="px" height="15px" viewBox="0 0 15 14" version="1.1">
<defs>
<linearGradient id="linear0" gradientUnits="userSpaceOnUse" x1="55.549179" y1="77.070274" x2="110.14919" y2="131.85291" gradientTransform="matrix(0.136364,0,0,0.127273,-6.127841,-8.586932)">
<stop offset="0" style="stop-color:rgb(21.960784%,49.411765%,72.156863%);stop-opacity:1;"/>
<stop offset="1" style="stop-color:rgb(21.176471%,41.176471%,58.039216%);stop-opacity:1;"/>
</linearGradient>
<linearGradient id="linear1" gradientUnits="userSpaceOnUse" x1="89.136749" y1="111.92053" x2="147.77737" y2="168.1012" gradientTransform="matrix(0.136364,0,0,0.127273,-6.127841,-8.586932)">
<stop offset="0" style="stop-color:rgb(100%,87.843137%,32.156863%);stop-opacity:1;"/>
<stop offset="1" style="stop-color:rgb(100%,76.470588%,19.215686%);stop-opacity:1;"/>
</linearGradient>
</defs>
<g id="surface1">
<path style=" stroke:none;fill-rule:nonzero;fill:url(#linear0);" d="M 7.472656 0 C 3.652344 0 3.890625 1.546875 3.890625 1.546875 L 3.894531 3.148438 L 7.542969 3.148438 L 7.542969 3.632812 L 2.445312 3.632812 C 2.445312 3.632812 0 3.371094 0 6.972656 C 0 10.570312 2.136719 10.445312 2.136719 10.445312 L 3.410156 10.445312 L 3.410156 8.773438 C 3.410156 8.773438 3.339844 6.78125 5.511719 6.78125 C 7.679688 6.78125 9.128906 6.78125 9.128906 6.78125 C 9.128906 6.78125 11.160156 6.8125 11.160156 4.949219 C 11.160156 3.082031 11.160156 1.867188 11.160156 1.867188 C 11.160156 1.867188 11.46875 0 7.472656 0 Z M 5.464844 1.078125 C 5.824219 1.078125 6.121094 1.351562 6.121094 1.691406 C 6.121094 2.027344 5.824219 2.304688 5.464844 2.304688 C 5.101562 2.304688 4.808594 2.027344 4.808594 1.691406 C 4.808594 1.351562 5.101562 1.078125 5.464844 1.078125 Z M 5.464844 1.078125 "/>
<path style=" stroke:none;fill-rule:nonzero;fill:url(#linear1);" d="M 7.582031 13.980469 C 11.40625 13.980469 11.167969 12.433594 11.167969 12.433594 L 11.164062 10.832031 L 7.515625 10.832031 L 7.515625 10.347656 L 12.613281 10.347656 C 12.613281 10.347656 15.058594 10.609375 15.058594 7.007812 C 15.058594 3.410156 12.921875 3.535156 12.921875 3.535156 L 11.648438 3.535156 L 11.648438 5.207031 C 11.648438 5.207031 11.71875 7.199219 9.546875 7.199219 C 7.378906 7.199219 5.929688 7.199219 5.929688 7.199219 C 5.929688 7.199219 3.898438 7.167969 3.898438 9.03125 C 3.898438 10.898438 3.898438 12.113281 3.898438 12.113281 C 3.898438 12.113281 3.589844 13.980469 7.582031 13.980469 Z M 9.59375 12.902344 C 9.230469 12.902344 8.9375 12.628906 8.9375 12.289062 C 8.9375 11.953125 9.230469 11.675781 9.59375 11.675781 C 9.957031 11.675781 10.25 11.953125 10.25 12.289062 C 10.25 12.628906 9.957031 12.902344 9.59375 12.902344 Z M 9.59375 12.902344 "/>
</g>
</svg>
